<?xml version="1.0" encoding="utf-8"?>
<!-- Generator: Adobe Illustrator 17.0.0, SVG Export Plug-In . SVG Version: 6.00 Build 0)  -->
<!DOCTYPE svg PUBLIC "-//W3C//DTD SVG 1.1//EN" "http://www.w3.org/Graphics/SVG/1.1/DTD/svg11.dtd">
<svg version="1.1" xmlns="http://www.w3.org/2000/svg" xmlns:xlink="http://www.w3.org/1999/xlink" x="0px" y="0px" width="800px"
	 height="800px" viewBox="0 0 800 800" enable-background="new 0 0 800 800" xml:space="preserve">
<g id="Layer_1" display="none">
	<text transform="matrix(1 0 0 1 226 554)" display="inline" font-family="'Sarabun-Regular'" font-size="500">ท</text>
</g>
<g id="Layer_2" display="none">
	<text transform="matrix(1 0 0 1 243 549)" display="inline" font-family="'Sarabun-Regular'" font-size="500">ธ</text>
</g>
<g id="Layer_3" display="none">
	<text transform="matrix(1 0 0 1 218 545)" display="inline" font-family="'Sarabun-Regular'" font-size="500">น</text>
</g>
<g id="Layer_4" display="none">
	<text transform="matrix(1 0 0 1 240 545)" display="inline" font-family="'Sarabun-Regular'" font-size="500">บ</text>
</g>
<g id="Layer_5" display="none">
	<text transform="matrix(1 0 0 1 219 575)" display="inline" font-family="'Sarabun-Regular'" font-size="500">ป</text>
</g>
<g id="Layer_6" display="none">
	<text transform="matrix(1 0 0 1 247 536)" display="inline" font-family="'Sarabun-Regular'" font-size="500">ผ</text>
</g>
<g id="Layer_7" display="none">
	<text transform="matrix(1 0 0 1 236 590)" display="inline" font-family="'Sarabun-Regular'" font-size="500">ฝ</text>
</g>
<g id="Layer_8" display="none">
	<text transform="matrix(1 0 0 1 206 560)" display="inline" font-family="'Sarabun-Regular'" font-size="500">พ</text>
</g>
<g id="Layer_9" display="none">
	<text transform="matrix(1 0 0 1 212 602)" display="inline" font-family="'Sarabun-Regular'" font-size="500">ฟ</text>
</g>
<g id="Layer_10" display="none">
	<text transform="matrix(1 0 0 1 231 486)" display="inline" font-family="'Sarabun-Regular'" font-size="500">ฦ</text>
</g>
<g id="Layer_11" display="none">
	<text transform="matrix(1 0 0 1 230 538)" display="inline" font-family="'Sarabun-Regular'" font-size="500">ภ</text>
</g>
<g id="Layer_12" display="none">
	<text transform="matrix(1 0 0 1 236 538)" display="inline" font-family="'Sarabun-Regular'" font-size="500">ม</text>
</g>
<g id="Layer_13" display="none">
	<text transform="matrix(1 0 0 1 232 541)" display="inline" font-family="'Sarabun-Regular'" font-size="500">ย</text>
</g>
<g id="Layer_14" display="none">
	<text transform="matrix(1 0 0 1 286 531)" display="inline" font-family="'Sarabun-Regular'" font-size="500">ร</text>
</g>
<g id="Layer_15" display="none">
	<text transform="matrix(1 0 0 1 261 539)" display="inline" font-family="'Sarabun-Regular'" font-size="500">ล</text>
</g>
<g id="Layer_16" display="none">
	<text transform="matrix(1 0 0 1 257 515)" display="inline" font-family="'Sarabun-Regular'" font-size="500">ว</text>
</g>
<g id="Layer_17" display="none">
	<text transform="matrix(1 0 0 1 239 555)" display="inline" font-family="'Sarabun-Regular'" font-size="500">ศ</text>
</g>
<g id="Layer_18" display="none">
	<text transform="matrix(1 0 0 1 223 539)" display="inline" font-family="'Sarabun-Regular'" font-size="500">ษ</text>
</g>
<g id="Layer_19" display="none">
	<text transform="matrix(1 0 0 1 231 540)" display="inline" font-family="'Sarabun-Regular'" font-size="500">ส</text>
</g>
<g id="Layer_20" display="none">
	<text transform="matrix(1 0 0 1 220 537)" display="inline" font-family="'Sarabun-Regular'" font-size="500">ห</text>
</g>
<g id="Layer_21">
	<text transform="matrix(1 0 0 1 201 551)" font-family="'Sarabun-Regular'" font-size="500">ฬ</text>
</g>
</svg>
